<?xml version="1.0" encoding="UTF-8"?>
<!DOCTYPE svg PUBLIC "-//W3C//DTD SVG 1.1//EN" "http://www.w3.org/Graphics/SVG/1.1/DTD/svg11.dtd">
<!-- Creator: CorelDRAW -->
<svg xmlns="http://www.w3.org/2000/svg" xml:space="preserve" width="43.3492mm" height="43.3492mm" version="1.1" style="shape-rendering:geometricPrecision; text-rendering:geometricPrecision; image-rendering:optimizeQuality; fill-rule:evenodd; clip-rule:evenodd"
viewBox="0 0 4335 4335"
 xmlns:xlink="http://www.w3.org/1999/xlink">
 <defs>
  <style type="text/css">
   <![CDATA[
    .str0 {stroke:#373435;stroke-width:17.64}
    .fil0 {fill:none}
    .fil1 {fill:#52050D}
    .fil2 {fill:orangered}
    .fil3 {fill:#FFD300}
   ]]>
  </style>
 </defs>
<symbol id="Symbol1" viewBox="2028 2051 286 228">
 <line class="fil0 str0" x1="2247" y1="2059" x2="2305" y2= "2276" />
 <line class="fil0 str0" x1="2247" y1="2059" x2="2030" y2= "2117" />
</symbol>
 <g id="Layer_x0020_1">
  <metadata id="CorelCorpID_0Corel-Layer"/>
  <path class="fil1" d="M719 3339l-1 -1910c0,-21 11,-42 29,-53l1480 -973c22,-14 46,-14 67,0l1456 973c18,11 29,32 29,53l0 1822c10,-3 22,-3 31,1l462 144c80,26 33,145 -39,116l-444 -137c-17,0 -34,19 -79,24l-365 113c-11,4 -25,4 -35,0l-444 -137 -448 137c-11,4 -25,4 -35,0l-445 -137 -444 137c-10,4 -25,4 -35,0l-444 -137 -445 137c-10,4 -24,4 -35,0l-462 -144c-75,-24 -39,-142 39,-116l444 137 163 -50zm3532 995c-25,0 -448,-141 -462,-141l-444 137c-11,4 -25,4 -35,0l-444 -137 -448 137c-11,4 -25,4 -35,0l-445 -137 -444 137c-10,4 -25,4 -35,0l-444 -137 -445 137c-10,4 -24,4 -35,0l-462 -144c-75,-24 -39,-142 39,-117l444 138 445 -138c10,-3 24,-3 35,0l444 138 444 -138c11,-3 25,-3 35,0l445 138 447 -138c11,-3 25,-3 36,0l444 138 444 -138c11,-3 25,-3 35,0l462 145c63,20 53,120 -21,120zm0 -409c-29,0 -446,-145 -462,-145l-444 141c-11,4 -25,4 -39,0l-444 -141 -444 141c-11,4 -25,4 -39,0l-444 -141 -444 141c-11,4 -25,4 -39,0l-444 -141 -445 141c-10,4 -24,4 -38,0l-462 -148c-76,-24 -39,-141 38,-116l445 141 444 -141c11,-4 25,-4 39,0l444 141 444 -141c11,-4 25,-4 39,0l444 141 444 -141c11,-4 25,-4 39,0l444 141 445 -141c10,-4 24,-4 38,0l462 148c64,21 53,120 -21,120zm-599 -635l0 -1833 -1389 -931 -1421 935 0 1840c48,-15 163,-59 194,-49l444 137 328 -101 0 -467c0,-239 194,-433 434,-433 239,0 433,194 433,433l0 485c50,-16 180,-65 212,-54l444 137 321 -99zm-1717 -41c37,-4 446,140 469,140l151 -46 0 -522c0,-169 -137,-310 -310,-310 -169,0 -310,138 -310,310l0 428zm1446 -2266c-15,-3 -29,-12 -38,-25l-298 -192c-23,-1 -43,-15 -53,-34l-732 -474 -1883 1238c-72,35 -132,-60 -67,-106l1917 -1259c27,-16 63,-11 82,13l676 439 0 -349c0,-131 103,-233 233,-233 131,0 233,106 233,233l0 651 768 498c67,42 4,145 -67,99l-771 -499zm-50 -176l0 -573c0,-144 -219,-144 -219,0l0 431 219 142zm-32 777c-35,0 -104,-59 -148,-88 -65,-43 3,-148 71,-99 73,53 177,95 127,162 -11,14 -29,25 -50,25zm-264 -187c-11,0 -25,-3 -36,-10l-274 -194c-67,-49 6,-146 70,-99l275 194c49,36 25,109 -35,109zm-786 102c-198,0 -360,-162 -360,-359 0,-198 162,-360 360,-360 197,0 359,162 359,360 4,197 -158,359 -359,359zm0 -595c-131,0 -237,105 -237,236 0,130 106,236 237,236 130,0 236,-106 236,-236 3,-131 -102,-236 -236,-236zm1071 1452l-532 0c-35,0 -63,-28 -63,-63l0 -476c0,-36 28,-64 63,-64l532 0c36,0 64,28 64,64l0 476c0,35 -28,63 -64,63zm-472 -123l409 0 0 -353 -409 0 0 353z"/>
  <path class="fil2" d="M842 1461l0 1840c48,-15 163,-59 194,-49l444 137 328 -101 0 -467c0,-239 194,-433 434,-433 239,0 433,194 433,433l0 485c50,-16 180,-65 212,-54l444 137 321 -99 0 -1833 -1389 -931 -1421 935zm2457 123c-35,0 -104,-59 -148,-88 -65,-43 3,-148 71,-99 73,53 177,95 127,162 -11,14 -29,25 -50,25zm-574 709l0 -476c0,-36 28,-64 63,-64l532 0c36,0 64,28 64,64l0 476c0,35 -28,63 -64,63l-532 0c-35,0 -63,-28 -63,-63zm310 -896c-11,0 -25,-3 -36,-10l-274 -194c-67,-49 6,-146 70,-99l275 194c49,36 25,109 -35,109zm-786 102c-198,0 -360,-162 -360,-359 0,-198 162,-360 360,-360 197,0 359,162 359,360 4,197 -158,359 -359,359z"/>
  <path class="fil3" d="M2012 1140c0,130 106,236 237,236 130,0 236,-106 236,-236 3,-131 -102,-236 -236,-236 -131,0 -237,105 -237,236z"/>
  <path class="fil3" d="M2555 2821c0,-169 -137,-310 -310,-310 -169,0 -310,138 -310,310l0 428c37,-4 446,140 469,140l151 -46 0 -522z"/>
  <polygon class="fil3" points="2848,2233 3257,2233 3257,1880 2848,1880 "/>
  <path class="fil3" d="M3112 665l219 142 0 -573c0,-144 -219,-144 -219,0l0 431z"/>
 </g>
</svg>
